<?xml version="1.0" encoding="UTF-8"?>
<svg width="92px" height="21px" viewBox="0 0 92 21" version="1.1" xmlns="http://www.w3.org/2000/svg" xmlns:xlink="http://www.w3.org/1999/xlink">
    <!-- Generator: Sketch 43.1 (39012) - http://www.bohemiancoding.com/sketch -->
    <title>未命名</title>
    <desc>Created with Sketch.</desc>
    <defs></defs>
    <g id="Page-1" stroke="none" stroke-width="1" fill="none" fill-rule="evenodd">
        <g id="By-nc-nd_color" fill="#121513">
            <g id="g2602" transform="translate(23.525482, 0.000000)">
                <path d="M11.9920486,7.13286116 C11.9920486,6.7974874 11.7204937,6.52580062 11.3865582,6.52580062 L7.55117319,6.52580062 C7.21681071,6.52580062 6.94568287,6.7974845 6.94568287,7.13286116 L6.94568287,10.9783401 L8.01544835,10.9783401 L8.01544835,15.5318661 L10.9221403,15.5318661 L10.9221403,10.9783401 L11.9920486,10.9783401 L11.9920486,7.13286116 L11.9920486,7.13286116 Z" id="path37" fill-rule="nonzero"></path>
                <ellipse id="circle39" fill-rule="nonzero" cx="9.46879428" cy="4.70433454" rx="1.31198928" ry="1.31539301"></ellipse>
                <path d="M9.45706124,0.0595766529 C6.85955191,0.0595766529 4.66093511,0.968157851 2.86177779,2.78561095 C1.01511983,4.6658905 0.0922935881,6.89072624 0.0922935881,9.4604031 C0.0922935881,12.0297936 1.01511983,14.239426 2.86177779,16.0881477 C4.70786161,17.9368709 6.90648129,18.8612295 9.45706124,18.8612295 C12.0386909,18.8612295 14.2763693,17.9294081 16.1698095,16.0646225 C17.9533699,14.2945076 18.8455821,12.0929107 18.8455821,9.4604031 C18.8455821,6.82789545 17.9379186,4.60306116 16.122883,2.78561095 C14.3075575,0.968160744 12.0856174,0.0595766529 9.45706124,0.0595766529 Z M9.48052593,1.75137107 C11.6086116,1.75137107 13.4156352,2.50330992 14.9024623,4.00776322 C16.4044536,5.49615124 17.1553064,7.31360145 17.1553064,9.4604031 C17.1553064,11.622411 16.4201919,13.4166238 14.9491046,14.8424674 C13.3998983,16.3779043 11.5771349,17.1456236 9.48052593,17.1456236 C7.38348994,17.1456236 5.57632208,16.385937 4.05859103,14.8659911 C2.54086142,13.3460438 1.78199806,11.5443754 1.78199806,9.4604031 C1.78199806,7.37643079 2.54873203,5.55898202 4.08219998,4.00776322 C5.55314445,2.50330992 7.35230177,1.75137107 9.48052593,1.75137107 Z" id="path41"></path>
            </g>
            <path d="M56.5284934,0.0595766529 C59.1570885,0.0595766529 61.3793503,0.968157851 63.1947004,2.7856095 C65.0094806,4.60334897 65.9171571,6.82818326 65.9171571,9.4604031 C65.9171571,12.0926229 65.0249348,14.2942213 63.2416312,16.0646211 C61.3478707,17.9291231 59.1101577,18.8612295 56.5284934,18.8612295 C53.9783044,18.8612295 51.7795073,17.9371558 49.9332504,16.0881477 C48.0867092,14.2394246 47.1638686,12.0297965 47.1638686,9.4604031 C47.1638686,6.89100971 48.0867092,4.6658905 49.9332504,2.7856095 C51.7325765,0.968157851 53.9313707,0.0595766529 56.5284934,0.0595766529 Z M49.2733813,6.9351936 C48.9935245,7.72844835 48.8535947,8.57018388 48.8535947,9.4604031 C48.8535947,11.5443754 49.612471,13.3460467 51.1302237,14.8657062 C52.648262,16.3856521 54.4550303,17.1456236 56.5519552,17.1456236 C58.6488801,17.1456236 60.4716695,16.3781936 62.0209003,14.8424688 C62.5394085,14.3398341 62.9663473,13.7918758 63.3017182,13.1977262 L59.7671633,11.6195401 C59.5273664,12.811857 58.4674579,13.6174457 57.1860674,13.7121207 L57.1860674,15.161206 L56.1098493,15.161206 L56.1098493,13.7121207 C55.0573802,13.7000702 54.0406807,13.268876 53.2634896,12.586363 L54.5551801,11.2807227 C55.1769901,11.8677017 55.7988001,12.1313543 56.6481004,12.1313543 C57.1980853,12.1313543 57.8081616,11.9156112 57.8081616,11.1969527 C57.8081616,10.9421932 57.7097241,10.7651829 57.5546315,10.6320671 L56.6609782,10.2330021 L55.5475608,9.7361062 C54.9970032,9.49024132 54.5305758,9.28195806 54.0624288,9.07338843 L49.2733813,6.9351936 Z M56.5519552,1.75136963 C54.4241249,1.75136963 52.6247988,2.50359773 51.1539726,4.00804959 C50.7533591,4.41285207 50.4053976,4.83601653 50.1095168,5.27754008 L53.6938632,6.87752893 C54.0177887,5.88087211 54.9626631,5.27639174 56.1098493,5.20868698 L56.1098493,3.7596031 L57.1860674,3.7596031 L57.1860674,5.20868698 C57.9277758,5.24455041 58.7410194,5.44824174 59.5422493,6.07108264 L58.3106502,7.34057314 C57.8562407,7.0172469 57.2822169,6.78945475 56.7076248,6.78945475 C56.241483,6.78945475 55.5836176,6.93347252 55.5836176,7.52016364 C55.5836176,7.60967541 55.6133762,7.68856715 55.6677463,7.7588564 L56.8667263,8.29390661 L57.6782546,8.65653843 C58.1973327,8.88806054 58.6929504,9.10925331 59.1839879,9.32843574 L63.9884881,11.4732285 C64.1475881,10.84207 64.2271367,10.1710333 64.2271367,9.46040599 C64.2271367,7.31360434 63.4762738,5.49615413 61.9739738,4.00805248 C60.4871251,2.50359773 58.6803597,1.75136963 56.5519552,1.75136963 Z" id="path43" fill-rule="nonzero"></path>
            <g id="g2625" transform="translate(70.706087, 0.000000)" fill-rule="nonzero">
                <path d="M9.14244021,0.0604849174 C4.078181,0.189255992 0.00387471792,4.3529312 0.00387471792,9.46085723 C0.00387471792,14.6498618 4.20461279,18.8612295 9.38051897,18.8612295 C14.5564252,18.8612295 18.7571632,14.6498618 18.7571632,9.46085723 C18.7571632,4.27185269 14.5564252,0.0604849174 9.38051897,0.0604849174 C9.2996447,0.0604849174 9.22282546,0.0584413223 9.14244021,0.0604849174 Z M9.13328283,1.67617459 C9.21636423,1.67353368 9.29680285,1.67617459 9.38051897,1.67617459 C13.6668182,1.67617459 17.1455518,5.16371198 17.1455518,9.46085723 C17.1455518,13.7580025 13.6668182,17.2455413 9.38051897,17.2455413 C5.09421975,17.2455399 1.61548473,13.7580025 1.61548473,9.46085723 C1.61548473,5.24763967 4.96262936,1.8087436 9.13328283,1.67617459 Z" id="path1334"></path>
                <path d="M6.09416096,7.23755021 L12.9986544,7.23755021 L12.9986544,8.93539153 L6.09416096,8.93539153 L6.09416096,7.23755021 Z M6.09416096,10.3067248 L12.9986544,10.3067248 L12.9986544,12.0045647 L6.09416096,12.0045647 L6.09416096,10.3067248 Z" id="rect1338"></path>
            </g>
            <g id="switch2543" transform="translate(0.071681, 0.046803)">
                <g id="g2547">
                    <g id="Foreground">
                        <g id="g2552">
                            <path d="M9.3639036,0 C6.79114864,0 4.52743243,0.954460465 2.77808943,2.73386233 C0.977486883,4.56525005 0,6.93788489 0,9.41389733 C0,11.9154571 0.951708963,14.2367002 2.7526078,16.0419465 C4.55350665,17.8474898 6.89426032,18.8272005 9.3639036,18.8272005 C11.8332506,18.8272005 14.2258564,17.8471927 16.0780148,16.0161021 C17.8273578,14.288092 18.7532888,11.9926933 18.7532888,9.41360027 C18.7532888,6.86035169 17.8273578,4.53910859 16.0522369,2.75940967 C14.251338,0.954460465 11.9363623,0 9.3639036,0 Z M9.38938522,1.70216572 C11.4990265,1.70216572 13.3769628,2.50155978 14.843045,3.97172002 C16.2836455,5.41603585 17.0552054,7.32465972 17.0552054,9.41360027 C17.0552054,11.5283852 16.3091272,13.3853203 14.8688229,14.8040888 C13.3508886,16.3000934 11.3959148,17.0994875 9.38938522,17.0994875 C7.35737399,17.0994875 5.45365977,16.3000934 3.98728129,14.8299332 C2.52090282,13.3597729 1.69778716,11.4256017 1.69778716,9.41389733 C1.69778716,7.37634852 2.52090282,5.44217732 3.98728129,3.94617268 C5.42788185,2.47601244 7.28004023,1.70216572 9.38938522,1.70216572 Z" id="path2554"></path>
                            <path d="M9.26849567,7.84956842 C8.73812236,6.87995779 7.83322847,6.49407414 6.7828523,6.49407414 C5.25395496,6.49407414 4.03705935,7.57835074 4.03705935,9.41389733 C4.03705935,11.2803384 5.18106567,12.3337205 6.83470444,12.3337205 C7.89574734,12.3337205 8.80064123,11.7496965 9.29960695,10.8635603 L8.13485977,10.2691391 C7.87471019,10.8947518 7.47944874,11.082495 6.98048302,11.082495 C6.11707084,11.082495 5.7218094,10.3630107 5.7218094,9.4141944 C5.7218094,8.46537811 6.05484828,7.74559669 6.98048302,7.74559669 C7.22996588,7.74559669 7.7292279,7.88135406 8.02048877,8.50666974 L9.26849567,7.84956842 Z" id="path2556"></path>
                            <path d="M14.6851182,7.84956842 C14.1547449,6.87995779 13.249851,6.49407414 12.1994748,6.49407414 C10.6705775,6.49407414 9.45368187,7.57835074 9.45368187,9.41389733 C9.45368187,11.2803384 10.5976882,12.3337205 12.2516233,12.3337205 C13.3123699,12.3337205 14.2172638,11.7496965 14.7165258,10.8635603 L13.5517786,10.2691391 C13.291629,10.8947518 12.8966639,11.082495 12.3974018,11.082495 C11.5339897,11.082495 11.1387282,10.3630107 11.1387282,9.4141944 C11.1387282,8.46537811 11.4717671,7.74559669 12.3974018,7.74559669 C12.6468847,7.74559669 13.1461467,7.88135406 13.4374076,8.50666974 L14.6851182,7.84956842 Z" id="path2558"></path>
                        </g>
                    </g>
                </g>
            </g>
        </g>
    </g>
</svg>
