<?xml version="1.0" encoding="UTF-8"?>
<svg width="62px" height="13px" viewBox="0 0 62 13" version="1.1" xmlns="http://www.w3.org/2000/svg" xmlns:xlink="http://www.w3.org/1999/xlink">
    <!-- Generator: Sketch 43.1 (39012) - http://www.bohemiancoding.com/sketch -->
    <title>By-nc-nd_color</title>
    <desc>Created with Sketch.</desc>
    <defs></defs>
    <g id="Page-1" stroke="none" stroke-width="1" fill="none" fill-rule="evenodd" opacity="0.410552536">
        <g id="By-nc-nd_color" fill="#121513">
            <g id="g2602" transform="translate(16.061048, 0.000000)">
                <path d="M8.18707402,4.85713879 C8.18707402,4.62876523 8.00168121,4.44375947 7.77370061,4.44375947 L5.15525045,4.44375947 C4.92697833,4.44375947 4.74187705,4.62876326 4.74187705,4.85713879 L4.74187705,7.47572682 L5.47221508,7.47572682 L5.47221508,10.5764612 L7.45663848,10.5764612 L7.45663848,7.47572682 L8.18707402,7.47572682 L8.18707402,4.85713879 L8.18707402,4.85713879 Z" id="path37" fill-rule="nonzero"></path>
                <ellipse id="circle39" fill-rule="nonzero" cx="6.46442676" cy="3.20342781" rx="1" ry="1"></ellipse>
                <path d="M6.45641652,0.0405688636 C4.6830747,0.0405688636 3.18206023,0.659269394 1.95376015,1.89686841 C0.693030985,3.17724924 0.0630096212,4.69225644 0.0630096212,6.44208402 C0.0630096212,8.19171659 0.693030985,9.69637106 1.95376015,10.9552625 C3.21409735,12.2141549 4.71511379,12.8435992 6.45641652,12.8435992 C8.21891712,12.8435992 9.74659932,12.2090731 11.0392671,10.939243 C12.256919,9.73387902 12.8660399,8.23469636 12.8660399,6.44208402 C12.8660399,4.64947167 12.2463703,3.13446545 11.00723,1.89686841 C9.76789174,0.659271364 8.25095424,0.0405688636 6.45641652,0.0405688636 Z M6.47243606,1.1926003 C7.92529833,1.1926003 9.15896879,1.70463485 10.1740383,2.72909591 C11.1994606,3.74261727 11.7120742,4.98021432 11.7120742,6.44208402 C11.7120742,7.91430841 11.2102053,9.13608189 10.2058814,10.1070135 C9.14822508,11.152573 7.90380894,11.6753532 6.47243606,11.6753532 C5.04077167,11.6753532 3.80700273,11.1580428 2.77083477,10.123032 C1.7346678,9.0880203 1.2165853,7.86116992 1.2165853,6.44208402 C1.2165853,5.02299811 1.74004114,3.78540205 2.7869528,2.72909591 C3.79117917,1.70463485 5.01947924,1.1926003 6.47243606,1.1926003 Z" id="path41"></path>
            </g>
            <path d="M38.5924855,0.0405688636 C40.3870498,0.0405688636 41.9042069,0.659269394 43.1435619,1.89686742 C44.3825279,3.13466144 45.0022064,4.64966765 45.0022064,6.44208402 C45.0022064,8.23450038 44.3930786,9.73368402 43.175602,10.939242 C41.8827155,12.2088791 40.3550097,12.8435992 38.5924855,12.8435992 C36.8514496,12.8435992 35.350312,12.2143489 34.0898567,10.9552625 C32.8292073,9.69637008 32.1991761,8.19171856 32.1991761,6.44208402 C32.1991761,4.69244947 32.8292073,3.17724924 34.0898567,1.89686742 C35.318272,0.659269394 36.8194076,0.0405688636 38.5924855,0.0405688636 Z M33.6393584,4.72253659 C33.4482978,5.2627053 33.3527665,5.83588712 33.3527665,6.44208402 C33.3527665,7.86116992 33.8708579,9.08802227 34.9070406,10.122838 C35.9434183,11.1578488 37.1769145,11.6753532 38.608503,11.6753532 C40.0400916,11.6753532 41.2845255,11.1527699 42.3421986,10.1070145 C42.6961886,9.76474417 42.9876633,9.39161068 43.2166239,8.98702311 L40.803553,7.91235348 C40.6398417,8.72426455 39.9162331,9.27283205 39.0414168,9.33730121 L39.0414168,10.3240593 L38.3066736,10.3240593 L38.3066736,9.33730121 C37.5881439,9.32909545 36.8940345,9.03547273 36.3634395,8.57071386 L37.2452876,7.681635 C37.6698026,8.0813397 38.0943176,8.26087462 38.6741422,8.26087462 C39.0496216,8.26087462 39.4661258,8.11396379 39.4661258,7.62459159 C39.4661258,7.4511125 39.3989217,7.33057689 39.2930387,7.23993144 L38.6829339,6.96818712 L37.9227944,6.6298247 C37.546924,6.46240242 37.22849,6.32057144 36.908882,6.17854545 L33.6393584,4.72253659 Z M38.608503,1.19259932 C37.1558151,1.19259932 35.9273998,1.70483083 34.9232542,2.72929091 C34.6497519,3.00494212 34.4121956,3.29309697 34.2101953,3.59375348 L36.6572592,4.6832697 C36.8784059,4.00459386 37.5234797,3.59297152 38.3066736,3.5468678 L38.3066736,2.56011068 L39.0414168,2.56011068 L39.0414168,3.5468678 C39.5477875,3.57128909 40.1029958,3.70999318 40.6500023,4.13411818 L39.8091791,4.99858076 C39.4989498,4.77841098 39.1070589,4.62329538 38.71478,4.62329538 C38.396541,4.62329538 37.9474107,4.72136462 37.9474107,5.12087333 C37.9474107,5.18182659 37.9677271,5.23554811 38.0048461,5.28341174 L38.8233999,5.64775545 L39.3774373,5.89469045 C39.7318163,6.05234598 40.0701787,6.20296773 40.4054142,6.35222053 L43.6854876,7.81272227 C43.7941065,7.38293341 43.848415,6.92598932 43.848415,6.44208598 C43.848415,4.98021629 43.3357945,3.74261924 42.3101614,2.72929288 C41.2950771,1.70483083 40.061583,1.19259932 38.608503,1.19259932 Z" id="path43" fill-rule="nonzero"></path>
            <g id="g2625" transform="translate(48.271650, 0.000000)" fill-rule="nonzero">
                <path d="M6.24162205,0.0411873485 C2.78420902,0.128874318 0.00264530303,2.96413886 0.00264530303,6.44239326 C0.00264530303,9.97585826 2.87052508,12.8435992 6.40416045,12.8435992 C9.93779583,12.8435992 12.8056756,9.97585826 12.8056756,6.44239326 C12.8056756,2.90892826 9.93779583,0.0411873485 6.40416045,0.0411873485 C6.34894689,0.0411873485 6.29650174,0.0397957576 6.24162205,0.0411873485 Z M6.23537023,1.14139508 C6.29209061,1.13959674 6.34700674,1.14139508 6.40416045,1.14139508 C9.33045356,1.14139508 11.7054147,3.51624197 11.7054147,6.44239326 C11.7054147,9.36854455 9.33045356,11.7433924 6.40416045,11.7433924 C3.47786735,11.7433914 1.10290523,9.36854455 1.10290523,6.44239326 C1.10290523,3.57339273 3.38802947,1.23166826 6.23537023,1.14139508 Z" id="path1334"></path>
                <path d="M4.16053576,4.92842705 L8.87429242,4.92842705 L8.87429242,6.08457614 L4.16053576,6.08457614 L4.16053576,4.92842705 Z M4.16053576,7.01838879 L8.87429242,7.01838879 L8.87429242,8.17453689 L4.16053576,8.17453689 L4.16053576,7.01838879 Z" id="rect1338"></path>
            </g>
            <g id="switch2543" transform="translate(0.048937, 0.031871)">
                <g id="g2547">
                    <g id="Foreground">
                        <g id="g2552">
                            <path d="M6.392817,0 C4.6363752,0 3.0909168,0.649942126 1.89662539,1.86163006 C0.667338647,3.10871789 0,4.72436924 0,6.4104158 C0,8.11385889 0.649739841,9.69451491 1.87922887,10.9238016 C3.10871789,12.1532907 4.70677043,12.820427 6.392817,12.820427 C8.07866128,12.820427 9.71211371,12.1530884 10.9765981,10.9062028 C12.1708895,9.72951023 12.8030305,8.16645303 12.8030305,6.41021352 C12.8030305,4.67157282 12.1708895,3.0909168 10.9589993,1.87902658 C9.72951023,0.649942126 8.1490565,0 6.392817,0 Z M6.41021352,1.1590938 C7.85048365,1.1590938 9.13256681,1.70344309 10.1334736,2.7045522 C11.1169839,3.68806251 11.6437344,4.98774448 11.6437344,6.41021352 C11.6437344,7.85028137 11.1343805,9.11476572 10.1510724,10.0808795 C9.11476572,11.0995874 7.78008843,11.6439367 6.41021352,11.6439367 C5.02294209,11.6439367 3.72326012,11.0995874 2.72215101,10.0984783 C1.7210419,9.0973692 1.1590938,7.78029071 1.1590938,6.4104158 C1.1590938,5.02294209 1.7210419,3.7058636 2.72215101,2.68715568 C3.70566132,1.68604657 4.97014567,1.1590938 6.41021352,1.1590938 Z" id="path2554"></path>
                            <path d="M6.32768118,5.3451823 C5.9655908,4.68492364 5.34781201,4.42215525 4.63071122,4.42215525 C3.58691994,4.42215525 2.75613491,5.16049598 2.75613491,6.4104158 C2.75613491,7.68137328 3.5371578,8.39867636 4.66611112,8.39867636 C5.39049417,8.39867636 6.00827296,8.00098379 6.34892112,7.39756724 L5.55373827,6.9927947 C5.37613193,7.41880718 5.10628356,7.54665138 4.7656354,7.54665138 C4.17617653,7.54665138 3.90632817,7.0567168 3.90632817,6.41061809 C3.90632817,5.76451938 4.13369665,5.27438251 4.7656354,5.27438251 C4.93595948,5.27438251 5.27680993,5.36682681 5.47565621,5.79263701 L6.32768118,5.3451823 Z" id="path2556"></path>
                            <path d="M10.0256557,5.3451823 C9.66356528,4.68492364 9.04578649,4.42215525 8.3286857,4.42215525 C7.28489442,4.42215525 6.45410939,5.16049598 6.45410939,6.4104158 C6.45410939,7.68137328 7.23513228,8.39867636 8.36428788,8.39867636 C9.08846865,8.39867636 9.70624744,8.00098379 10.0470979,7.39756724 L9.25191504,6.9927947 C9.07430869,7.41880718 8.80466261,7.54665138 8.46381217,7.54665138 C7.8743533,7.54665138 7.60450493,7.0567168 7.60450493,6.41061809 C7.60450493,5.76451938 7.83187342,5.27438251 8.46381217,5.27438251 C8.63413625,5.27438251 8.97498669,5.36682681 9.17383298,5.79263701 L10.0256557,5.3451823 Z" id="path2558"></path>
                        </g>
                    </g>
                </g>
            </g>
        </g>
    </g>
</svg>